<svg width="634" height="185" viewBox="0 0 634 185" fill="none" xmlns="http://www.w3.org/2000/svg">
<path d="M627.43 12.8274L626.174 11.9332L627.735 9.85944L625.394 9.06037L625.87 7.59541L628.229 8.37546V5.82605H629.77V8.37546L632.129 7.59541L632.605 9.06037L630.265 9.85944L631.806 11.9332L630.569 12.8274L628.99 10.7536L627.43 12.8274Z" fill="#190202"/>
<mask id="mask0_6_368" style="mask-type:alpha" maskUnits="userSpaceOnUse" x="0" y="14" width="127" height="135">
<path d="M42.1456 14.257C43.2908 19.5203 45.3402 22.1787 45.9097 27.9297C46.4792 33.6806 44.5562 33.1839 45.3838 38.8779C46.2114 44.5718 48.3621 44.3647 49.2208 50.8294C49.9994 56.6909 47.8442 51.928 48.4747 60.8539C49.1053 69.7798 52.3666 70.896 52.8549 77.5476C53.281 83.3516 51.4938 82.7214 52.4452 91.553C53.3965 100.385 54.855 96.3101 55.7379 102.384C56.6208 108.459 54.6452 108.511 55.5538 114.147C56.4624 119.784 57.3022 120.007 58.2884 124.78C59.2745 129.553 58.6872 134.143 59.4554 140.376" stroke="#CCFF00" stroke-width="0.157629"/>
<path d="M44.1811 15.7935C45.1056 21.0837 47.0503 23.8158 47.3755 29.5683C47.7008 35.3209 45.7903 34.7475 46.3772 40.4538C46.9642 46.1601 49.1337 46.0416 49.7189 52.517C50.2494 58.3882 48.2887 53.5553 48.539 62.4733C48.7893 71.3913 52.0177 72.6364 52.2227 79.2829C52.4016 85.0824 50.6332 84.3816 51.2098 93.2188C51.7865 102.056 53.4266 98.0563 54.0528 104.144C54.6789 110.231 52.6921 110.203 53.3629 115.855C54.0336 121.507 54.8677 121.764 55.6535 126.559C56.4393 131.354 55.6523 135.904 56.1564 142.144" stroke="#CDFD00" stroke-width="0.157629"/>
<path d="M46.219 17.3288C46.9226 22.6367 48.7601 25.4383 48.8419 31.1821C48.9237 36.9259 47.0288 36.2761 47.3755 41.9846C47.7223 47.6931 49.9069 47.6643 50.2191 54.1389C50.5022 60.0093 48.7381 55.1143 48.6099 64.0082C48.4817 72.9022 51.6721 74.2754 51.5951 80.9048C51.528 86.6894 49.7811 85.9185 49.9842 94.7453C50.1873 103.572 52.0053 99.6555 52.3752 105.745C52.7451 111.835 50.7503 111.725 51.1836 117.383C51.6168 123.041 52.4439 123.331 53.0292 128.14C53.6145 132.949 52.6301 137.449 52.8708 143.686" stroke="#CEFC00" stroke-width="0.157629"/>
<path d="M48.2608 18.8631C48.7436 24.1795 50.4713 27.0465 50.3111 32.7713C50.1509 38.4961 48.2745 37.7701 48.3819 43.4707C48.4893 49.1714 50.6853 49.2334 50.7256 55.6957C50.7622 61.555 49.1966 56.6058 48.6923 65.4597C48.188 74.3137 51.3354 75.814 50.9782 82.4143C50.6665 88.1735 48.9441 87.3331 48.7755 96.1339C48.6069 104.935 50.5987 101.109 50.7133 107.19C50.8279 113.272 48.8283 113.079 49.0248 118.733C49.2212 124.387 50.0399 124.71 50.4249 129.525C50.8099 134.34 49.631 138.781 49.6096 145.004" stroke="#D0FA00" stroke-width="0.157629"/>
<path d="M50.3056 20.3966C50.5682 25.7124 52.1839 28.6405 51.7833 34.3361C51.3827 40.0316 49.528 39.2299 49.3973 44.9127C49.2666 50.5954 51.4703 50.7492 51.2403 57.1878C51.0318 63.0256 49.6661 58.0303 48.7889 66.8284C47.9117 75.6264 51.0108 77.2527 50.3757 83.8122C49.8216 89.5357 48.1263 88.6264 47.5886 97.3857C47.0509 106.145 49.2121 102.417 49.0727 108.48C48.9332 114.542 46.9325 114.266 46.8932 119.907C46.8539 125.547 47.6628 125.903 47.8481 130.715C48.0334 135.527 46.6632 139.901 46.3812 146.098" stroke="#D1F800" stroke-width="0.157629"/>
<path d="M52.3542 21.9293C52.3974 27.2353 53.8991 30.2202 53.2603 35.8766C52.6216 41.5329 50.7916 40.656 50.4245 46.3109C50.0573 51.9659 52.2648 52.2122 51.7666 58.6158C51.3149 64.422 50.1501 59.3885 48.9038 68.115C47.6575 76.8416 50.7034 78.5924 49.7932 85.0993C48.999 90.777 47.3337 89.7997 46.43 98.5019C45.5263 107.204 47.8522 103.583 47.4605 109.615C47.0689 115.648 45.0704 115.289 44.7969 120.905C44.5234 126.521 45.3212 126.911 45.3077 131.711C45.2942 136.512 43.7361 140.811 43.1956 146.973" stroke="#D2F600" stroke-width="0.157629"/>
<path d="M54.4056 23.4612C54.2307 28.7485 55.6164 31.7858 54.742 37.3929C53.8676 43.0001 52.0655 42.0486 51.464 47.666C50.8626 53.2834 53.0699 53.6228 52.306 59.9803C51.6133 65.7447 50.6504 60.6811 49.0394 69.3207C47.4284 77.9603 50.4161 79.8341 49.2341 86.277C48.2027 91.8988 46.57 90.8543 45.3042 99.4842C44.0384 108.114 46.5238 104.606 45.8822 110.598C45.2406 116.591 43.2478 116.148 42.742 121.731C42.2362 127.314 43.0216 127.735 42.8105 132.517C42.5994 137.299 40.8574 141.515 40.061 147.629" stroke="#D3F500" stroke-width="0.157629"/>
<path d="M56.4601 24.9928C56.0687 30.2524 57.3366 33.3376 56.2296 38.8858C55.1226 44.434 53.3513 43.4088 52.5181 48.9789C51.6848 54.549 53.888 54.9819 52.8613 61.2824C51.9305 66.995 51.1699 61.9094 49.1993 70.4469C47.2288 78.9843 50.1532 80.9793 48.7031 87.3468C47.4378 92.9028 45.8405 91.7922 44.2171 100.335C42.5936 108.878 45.2331 105.489 44.3442 111.432C43.4552 117.374 41.4718 116.847 40.736 122.387C40.0002 127.927 40.7719 128.38 40.3648 133.135C39.9577 137.889 38.036 142.014 36.9866 148.071" stroke="#D5F300" stroke-width="0.157629"/>
<path d="M58.5182 26.524C57.9123 31.7471 59.0608 34.8757 57.7246 40.3553C56.3884 45.835 54.651 44.7369 53.5888 50.2502C52.5266 55.7636 54.7217 56.2902 53.4358 62.5228C52.2698 68.1739 51.7117 63.0743 49.3873 71.4947C47.0629 79.915 49.9191 82.0292 48.2052 88.3102C46.7097 93.7909 45.1505 92.6152 43.1745 101.056C41.1985 109.496 43.9863 106.235 42.8532 112.117C41.72 117.998 39.7494 117.388 38.7863 122.875C37.8232 128.362 38.5799 128.848 37.9787 133.567C37.3775 138.286 35.2807 142.312 33.9817 148.301" stroke="#D6F100" stroke-width="0.157629"/>
<path d="M60.5795 28.0549C59.7615 33.2327 60.7892 36.4001 59.2276 41.8018C57.6659 47.2035 55.9654 46.0336 54.6776 51.4808C53.3898 56.9279 55.5728 57.5483 54.0314 63.7025C52.6339 69.2823 52.2781 64.1768 49.6062 72.4655C46.9343 80.7542 49.7175 82.9852 47.7444 89.169C46.0228 94.5647 44.5044 93.3253 42.1814 101.649C39.8585 109.973 42.7888 106.845 41.4149 112.656C40.0411 118.467 38.0868 117.773 36.8995 123.199C35.7122 128.624 36.4526 129.141 35.6595 133.817C34.8664 138.492 32.5994 142.413 31.0547 148.324" stroke="#D7EF00" stroke-width="0.157629"/>
<path d="M62.6442 29.5858C61.6168 34.7099 62.5224 37.9115 60.7396 43.2259C58.9567 48.5404 57.296 47.2998 55.7862 52.6716C54.2764 58.0434 56.4434 58.7576 54.6509 64.8228C53.0256 70.322 52.8718 65.2185 49.8593 73.3612C46.8468 81.504 49.5521 83.8495 47.3251 89.9253C45.3818 95.2267 43.9068 93.925 41.2432 102.118C38.5797 110.312 41.6461 107.323 40.0354 113.054C38.4248 118.784 36.4904 118.006 35.0824 123.361C33.6744 128.716 34.3971 129.263 33.4148 133.888C32.4324 138.513 30.0003 142.321 28.2142 148.143" stroke="#D8EE00" stroke-width="0.157629"/>
<path d="M64.7123 31.1169C63.4786 36.1787 64.261 39.4098 62.2615 44.628C60.2619 49.8462 58.6441 48.5364 56.9164 53.8238C55.1887 59.1112 57.3354 59.9188 55.2966 65.8849C53.4479 71.2942 53.4952 66.2006 50.1497 74.1835C46.8041 82.1663 49.4268 84.6238 46.9513 90.5811C44.7913 95.7793 43.3622 94.4166 40.365 102.465C37.3677 110.514 40.5636 107.671 38.7205 113.311C36.8773 118.952 34.9665 118.091 33.3417 123.366C31.7168 128.641 32.4205 129.219 31.2517 133.785C30.0829 138.351 27.4913 142.039 25.4684 147.763" stroke="#DAEC00" stroke-width="0.157629"/>
<path d="M66.7839 32.648C65.3472 37.6393 66.0057 40.8953 63.7943 46.0085C61.583 51.1216 60.011 49.7438 58.0697 54.9381C56.1285 60.1323 58.2511 61.033 55.971 66.8899C53.9036 72.2004 54.1509 67.1245 50.4804 74.934C46.8099 82.7434 49.3454 85.31 46.6275 91.1388C44.2559 96.2248 42.8753 94.8027 39.5517 102.693C36.2282 110.584 39.5468 107.891 37.4759 113.433C35.4049 118.974 33.5212 118.031 31.6837 123.217C29.8462 128.404 30.5297 129.011 29.1776 133.511C27.8256 138.011 25.0801 141.572 22.8256 147.189" stroke="#DBEA00" stroke-width="0.157629"/>
<path d="M68.8588 34.1798C67.223 39.0925 67.7566 42.3687 65.3388 47.3682C62.921 52.3678 61.3976 50.9236 59.2476 56.0161C57.0975 61.1086 59.1919 62.1016 56.6761 67.8398C54.395 73.0425 54.841 67.9923 50.8542 75.6151C46.8674 83.2379 49.311 85.9106 46.3571 91.6011C43.7796 96.5664 42.4499 95.0866 38.808 102.806C35.1661 110.525 38.6005 107.989 36.3068 113.422C34.0132 118.854 32.1601 117.83 30.1145 122.919C28.0688 128.008 28.7309 128.644 27.199 133.071C25.6672 137.498 22.774 140.925 20.2932 146.425" stroke="#DCE800" stroke-width="0.157629"/>
<path d="M70.9372 35.7117C69.1062 40.5379 69.5145 43.8295 66.8958 48.7071C64.2772 53.5848 62.8052 52.0758 60.4515 57.0583C58.0978 62.0407 60.1599 63.1253 57.4144 68.7352C54.925 73.8217 55.5679 68.8048 51.274 76.2282C46.9801 83.6517 49.3274 86.4273 46.1442 91.9699C43.3667 96.8063 42.0905 95.2706 38.1387 102.806C34.187 110.341 37.7297 107.966 35.2188 113.281C32.7079 118.596 30.8891 117.491 28.6402 122.475C26.3913 127.459 27.0307 128.123 25.3228 132.469C23.6149 136.815 20.5804 140.104 17.8792 145.478" stroke="#DDE700" stroke-width="0.157629"/>
<path d="M73.019 37.2446C70.9971 41.9766 71.2797 45.2788 68.4661 50.0266C65.6526 54.7743 64.2348 53.2024 61.6829 58.0666C59.131 62.9309 61.1568 64.1062 58.1878 69.5787C55.4958 74.5405 56.3337 69.5646 51.7424 76.7764C47.151 83.9881 49.3976 86.8633 45.9925 92.2489C43.0212 96.9483 41.8007 95.3585 37.5482 102.697C33.2956 110.036 36.9393 107.827 34.2169 113.016C31.4945 118.205 29.7134 117.02 27.2665 121.89C24.8196 126.761 25.4352 127.452 23.5553 131.711C21.6754 135.97 18.506 139.113 15.5906 144.353" stroke="#DFE500" stroke-width="0.157629"/>
<path d="M75.1041 38.7782C72.8961 43.4086 73.0527 46.7167 70.0506 51.3268C67.0484 55.9369 65.6875 54.3039 62.9432 59.0422C60.1988 63.7804 62.1843 65.0452 58.9985 70.3714C56.11 75.2007 57.1406 70.2732 52.262 77.2615C47.3834 84.2497 49.5251 87.2208 45.9054 92.4407C42.747 96.9953 41.5846 95.3535 37.0407 102.484C32.4968 109.614 36.2337 107.575 33.306 112.63C30.3783 117.684 28.6385 116.421 25.9991 121.17C23.3597 125.919 23.9502 126.637 21.9026 130.802C19.855 134.966 16.5577 137.959 13.4346 143.055" stroke="#E0E300" stroke-width="0.157629"/>
<path d="M77.1927 40.3128C74.8035 44.8342 74.8342 48.1435 71.65 52.6085C68.4657 57.0735 67.1644 55.3814 64.2336 59.9861C61.3028 64.5907 63.2441 65.9437 59.8486 71.1152C56.7698 75.8042 57.9906 70.9325 52.8354 77.6859C47.6801 84.4393 49.7128 87.5026 45.8866 92.5481C42.5479 96.9506 41.4458 95.2588 36.6205 102.169C31.7952 109.079 35.6176 107.214 32.491 112.126C29.3645 117.039 27.6693 115.698 24.8433 120.319C22.0173 124.939 22.5816 125.682 20.3709 129.746C18.1602 133.81 14.742 136.648 11.418 141.592" stroke="#E1E100" stroke-width="0.157629"/>
<path d="M79.2845 41.8486C76.7193 46.2541 76.6243 49.5598 73.2649 53.8725C69.9055 58.1853 68.6663 56.4364 65.5554 60.9001C62.4446 65.3639 64.3377 66.8035 60.7397 71.8121C57.4775 76.3533 58.8856 71.5448 53.4648 78.0525C48.044 84.5601 49.9636 87.7116 45.9391 92.5747C42.4274 96.8181 41.3877 95.0784 36.2915 101.758C31.1952 108.437 35.095 106.75 31.7764 111.512C28.4577 116.273 26.8106 114.858 23.8041 119.342C20.7977 123.826 21.3347 124.594 18.9657 128.551C16.5967 132.507 13.0648 135.185 9.54714 139.97" stroke="#E2E000" stroke-width="0.157629"/>
<path d="M81.3797 43.3857C78.644 47.6684 78.4235 50.9658 74.8961 55.1195C71.3686 59.2733 70.1941 57.4696 66.9098 61.7856C63.6255 66.1015 65.4666 67.6261 61.6739 72.4639C58.2351 76.8502 59.8274 72.112 54.1526 78.3635C48.4778 84.6151 50.2805 87.8508 46.0661 92.5237C42.3888 96.6011 41.4137 94.8159 36.0574 101.254C30.701 107.692 34.6701 106.185 31.1664 110.789C27.6627 115.393 26.0671 113.904 22.8866 118.245C19.706 122.586 20.2146 123.378 17.6925 127.221C15.1703 131.064 11.5321 133.577 7.8283 138.195" stroke="#E4DE00" stroke-width="0.157629"/>
<path d="M83.4782 44.9241C80.5778 49.0775 80.2323 52.3618 76.5442 56.35C72.8562 60.3382 71.7487 58.4823 68.2979 62.6437C64.8471 66.8051 66.6323 68.4129 62.6529 73.0724C59.0447 77.2971 60.8179 72.6361 54.9009 78.6217C48.984 84.6073 50.6661 87.9229 46.2708 92.3983C42.4356 96.3034 41.5271 94.475 35.9219 100.662C30.3167 106.848 34.3467 105.524 30.6653 109.964C26.984 114.403 25.4431 112.842 22.0952 117.033C18.7473 121.225 19.2265 122.039 16.5564 125.763C13.8864 129.487 10.1495 131.831 6.26737 136.275" stroke="#E5DC00" stroke-width="0.157629"/>
<path d="M85.5798 46.4641C82.5207 50.4819 82.051 53.7486 78.2099 57.5651C74.3689 61.3817 73.3308 59.4759 69.7206 63.4764C66.1105 67.477 67.8361 69.1659 63.6781 73.64C59.9082 77.6965 61.8584 73.1196 55.7117 78.83C49.5649 84.5404 51.1229 87.9315 46.5557 92.2025C42.5706 95.9292 41.7306 94.06 35.8882 99.9856C30.0457 105.911 34.1283 104.773 30.2769 109.041C26.4256 113.309 24.9427 111.678 21.4344 115.713C17.9261 119.748 18.3747 120.584 15.5623 124.184C12.7499 127.783 8.92223 129.953 4.86975 134.216" stroke="#E6DA00" stroke-width="0.157629"/>
<path d="M87.6847 48.0059C84.4731 51.8822 83.8799 55.1265 79.8938 58.7656C75.9077 62.4047 74.9412 60.4516 71.1791 64.2852C67.417 68.1189 69.0794 69.8868 64.7514 74.1687C60.8273 78.051 62.9508 73.5647 56.5869 78.9913C50.2229 84.4178 51.6533 87.8797 46.9238 91.9397C42.7969 95.4824 42.0272 93.5751 35.9595 99.2307C29.8919 104.886 34.0185 103.937 30.005 108.026C25.9915 112.116 24.5699 110.417 20.9083 114.29C17.2467 118.163 17.6639 119.019 14.7149 122.489C11.7659 125.958 7.85525 127.952 3.64076 132.028" stroke="#E7D900" stroke-width="0.157629"/>
<path d="M89.7926 49.5496C86.435 53.2786 85.7194 56.496 81.5963 59.9522C77.4732 63.4083 76.5806 61.4106 72.6741 65.0717C68.7676 68.7328 70.3631 70.5773 65.8739 74.6606C61.8037 78.3629 64.0963 73.9738 57.5282 79.1083C50.96 84.2428 52.2596 87.7709 47.3772 91.6139C43.117 94.9671 42.4193 93.0242 36.1388 98.4015C29.8582 103.779 34.0203 103.019 29.8529 106.924C25.6854 110.83 24.328 109.065 20.5206 112.77C16.7131 116.475 17.098 117.351 14.0183 120.685C10.9386 124.019 6.9531 125.833 2.58516 129.716" stroke="#E9D700" stroke-width="0.157629"/>
<path d="M91.9041 51.0951C88.4072 54.6714 87.5704 57.8573 83.3186 61.1255C79.0668 64.3938 78.25 62.3542 74.207 65.8374C70.164 69.3205 71.6892 71.2391 67.0478 75.1179C62.8395 78.6348 65.2969 74.3492 58.5378 79.1841C51.7786 84.019 52.9444 87.6083 47.9191 91.2286C43.5342 94.3875 42.9102 92.4117 36.4294 97.5027C29.9486 102.594 34.1375 102.024 29.8244 105.74C25.5113 109.456 24.2211 107.628 20.2755 111.16C16.3298 114.692 16.6815 115.586 13.4772 118.78C10.273 121.974 6.22075 123.605 1.70814 127.289" stroke="#EAD500" stroke-width="0.157629"/>
<path d="M94.0175 52.6429C90.3881 56.0615 89.4315 59.2113 85.0595 62.2869C80.6875 65.3625 79.9485 63.2839 75.777 66.5841C71.6055 69.8844 73.0569 71.8744 68.2725 75.5431C63.9346 78.8695 66.5522 74.6935 59.6156 79.2218C52.679 83.7502 53.7081 87.3956 48.5499 90.7881C44.049 93.7482 43.5002 91.7423 36.8321 96.5397C30.1639 101.337 34.371 100.96 29.9208 104.48C25.4706 108.001 24.2507 106.113 20.1746 109.466C16.0985 112.819 16.4161 113.73 13.0936 116.779C9.77118 119.829 5.66046 121.276 1.01215 124.755" stroke="#EBD300" stroke-width="0.157629"/>
<path d="M96.1341 54.193C92.3794 57.449 91.3045 60.5584 86.8209 63.437C82.3374 66.3156 81.6781 64.2009 77.3863 67.3136C73.0945 70.4264 74.4687 72.4849 69.5508 75.9384C65.0918 79.0697 67.8646 75.0091 60.7644 79.2246C53.6642 83.4401 54.5538 87.1365 49.273 90.2963C44.6651 93.0534 44.193 91.0202 37.3507 95.5173C30.5084 100.014 34.7249 99.8292 30.1464 103.15C25.5679 106.471 24.4209 104.524 20.2224 107.694C16.024 110.865 16.3066 111.791 12.8724 114.691C9.43818 117.592 5.27736 118.852 0.502527 122.122" stroke="#ECD200" stroke-width="0.157629"/>
<path d="M98.2537 55.7454C94.3807 58.8342 93.1892 61.8988 88.603 64.5765C84.0167 67.2542 83.4388 65.1065 79.035 68.0274C74.6313 70.9483 75.9252 73.0725 70.8834 76.306C66.312 79.2379 69.235 75.2984 61.9851 79.1953C54.7352 83.0922 55.483 86.8343 50.09 89.7571C45.3841 92.3075 44.9901 90.25 37.987 94.4406C30.9839 98.6313 35.2012 98.6385 30.5032 101.755C25.8053 104.871 24.7341 102.869 20.4214 105.852C16.1086 108.835 16.3556 109.775 12.8163 112.522C9.27693 115.27 5.07441 116.342 0.182388 119.398" stroke="#EED000" stroke-width="0.157629"/>
<path d="M100.376 57.3004C96.3922 60.218 95.0859 63.2333 90.4058 65.7066C85.7257 68.1799 85.2308 66.0024 80.7237 68.7275C76.2165 71.4527 77.427 73.6393 72.2709 76.6486C67.596 79.3771 70.6641 75.5642 63.2787 79.1374C55.8934 82.7106 56.497 86.4929 51.0022 89.175C46.2076 91.5153 45.8928 89.4364 38.7426 93.3151C31.5924 97.1937 35.8017 97.393 30.9934 100.3C26.1852 103.207 25.1923 101.154 20.7736 103.945C16.3549 106.736 16.5656 107.69 12.9279 110.28C9.29013 112.871 5.05438 113.754 0.0546612 116.592" stroke="#EFCE00" stroke-width="0.157629"/>
<path d="M102.501 58.8581C98.4143 61.6006 96.9953 64.5625 92.2305 66.8282C87.4656 69.0939 87.0552 66.8897 82.4533 69.4156C77.8514 71.9416 78.9754 74.1874 73.7151 76.9685C68.9456 79.4902 72.1533 75.8091 64.6468 79.054C57.1403 82.299 57.5977 86.1161 52.0119 88.554C47.1379 90.6813 46.9034 88.5841 39.6199 92.1458C32.3364 95.7075 36.529 96.0982 31.6196 98.7929C26.7103 101.488 25.7982 99.385 21.282 101.981C16.7658 104.577 16.9395 105.542 13.2103 107.973C9.48105 110.404 5.22056 111.095 0.122769 113.713" stroke="#F0CC00" stroke-width="0.157629"/>
<path d="M104.629 60.4186C100.446 62.9824 98.9163 65.8868 94.0759 67.9421C89.2355 69.9975 88.9109 67.7699 84.223 70.0934C79.535 72.417 80.5699 74.7185 75.2153 77.2681C70.3603 79.5798 73.7019 76.0356 66.0888 78.9485C58.4757 81.8614 58.785 85.7076 53.1189 87.8985C48.1749 89.8102 48.0218 87.6977 40.6189 90.9382C33.216 94.1786 37.3833 94.7596 32.3822 97.2384C27.3811 99.7172 26.5522 97.5687 21.9471 99.9666C17.3419 102.364 17.4781 103.339 13.6643 105.607C9.85057 107.874 5.57386 108.375 0.387734 110.768" stroke="#F1CB00" stroke-width="0.157629"/>
<path d="M106.758 61.982C102.488 64.364 100.85 67.2067 95.9431 69.0494C91.0363 70.8921 90.7989 68.6444 86.0337 70.7628C81.2686 72.8812 82.2115 75.2349 76.7728 77.55C71.8416 79.6489 75.3113 76.2463 67.6062 78.8239C59.901 81.4015 60.0605 85.2711 54.3251 87.2126C49.3206 88.9066 49.2497 86.7821 41.7415 89.6975C34.2333 92.6129 38.3668 93.3828 33.2833 95.6427C28.1998 97.9027 27.4564 95.7116 22.771 97.9082C18.0856 100.105 18.1836 101.088 14.2924 103.19C10.4013 105.291 6.11686 105.601 0.852232 107.766" stroke="#F3C900" stroke-width="0.157629"/>
<path d="M108.89 63.5482C104.539 65.7456 102.795 68.5226 97.8315 70.1507C92.8675 71.7788 92.7184 69.5144 87.885 71.4253C83.0516 73.3362 83.9 75.7385 78.3874 77.8163C73.3892 79.7003 76.9811 76.4438 69.1986 78.6836C61.4162 80.9233 61.4244 84.8105 55.6306 86.5005C50.575 87.9751 50.5871 85.8417 42.9878 88.429C35.3885 91.0163 39.4796 91.9733 34.3233 94.0118C29.167 96.0503 28.5112 93.8202 23.7543 95.813C18.9973 97.8058 19.0567 98.7959 15.0954 100.729C11.134 102.662 6.85034 102.781 1.51712 104.717" stroke="#F4C700" stroke-width="0.157629"/>
<path d="M111.024 65.1177C106.601 67.1279 104.754 69.8354 99.7425 71.2473C94.7309 72.6593 94.671 70.3817 89.7784 72.0831C84.8857 73.7844 85.6372 76.2314 80.061 78.07C75.0051 79.7371 78.713 76.6309 70.8679 78.5309C63.0229 80.4309 62.8787 84.3297 57.0374 85.7668C51.9404 87.0208 52.0361 84.8817 44.36 87.1384C36.6839 89.3951 40.7242 90.5368 35.5047 92.3518C30.2852 94.1669 29.7189 91.901 24.8993 93.688C20.0796 95.475 20.1 96.4705 16.0757 98.2331C12.0514 99.9957 7.77692 99.9242 2.3851 101.628" stroke="#F5C600" stroke-width="0.157629"/>
<path d="M113.161 66.6903C108.674 68.5111 106.726 71.1453 101.676 72.3399C96.6263 73.5346 96.6566 71.2473 91.7137 72.7376C86.7708 74.2278 87.4231 76.7156 81.7936 78.3133C76.6894 79.7619 80.5071 76.8101 72.6142 78.3691C64.7213 79.928 64.4237 83.8325 58.5459 85.0157C53.4171 86.0481 53.5968 83.9067 45.8582 85.8308C38.1196 87.755 42.1009 89.079 36.8278 90.6688C31.5547 92.2586 31.0798 89.9607 26.2063 91.54C21.3328 93.1194 21.3139 94.1189 17.2339 95.7089C13.1539 97.299 8.89709 97.0382 3.45667 98.5089" stroke="#F6C400" stroke-width="0.157629"/>
<path d="M115.298 68.2666C110.756 69.8961 108.711 72.4533 103.632 73.43C98.5526 74.4066 98.6737 72.1132 93.6897 73.3911C88.7056 74.6691 89.2566 77.1936 83.5842 78.5492C78.4411 79.7782 82.3622 76.9845 74.4362 78.2017C66.5102 79.4189 66.0585 83.323 60.1551 84.2518C55.004 85.0623 55.2682 82.9218 47.4815 84.5122C39.6947 86.1026 43.6087 87.6058 38.2918 88.9691C32.9748 90.3324 32.593 88.0061 27.6745 89.3765C22.756 90.7468 22.6974 91.7487 18.5692 93.1647C14.4409 94.5807 10.21 94.132 4.73107 95.3684" stroke="#F8C200" stroke-width="0.157629"/>
<path d="M117.438 69.846C112.848 71.2829 110.708 73.7595 105.609 74.5179C100.511 75.2762 100.723 72.9803 95.707 74.045C90.6909 75.1098 91.1386 77.667 85.4337 78.7796C80.2611 79.7884 84.279 77.1563 76.3347 78.0318C68.3903 78.9072 67.7839 82.8049 61.866 83.4792C56.7022 84.0676 57.0511 81.9313 49.2305 83.1873C41.4099 84.4433 45.2488 86.1224 39.8976 87.2583C34.5464 88.3942 34.2592 86.0434 29.3047 87.2038C24.3502 88.3641 24.2517 89.3669 20.0825 90.6075C15.9134 91.8482 11.7167 91.2133 6.20924 92.2148" stroke="#F9C000" stroke-width="0.157629"/>
<path d="M119.579 71.429C114.949 72.672 112.718 75.0646 107.609 75.6047C102.5 76.1448 102.805 73.85 97.7654 74.7012C92.7263 75.5523 93.069 78.1379 87.3419 79.0072C82.1492 79.7954 86.2574 77.3282 78.3093 77.8625C70.3613 78.3968 69.6 82.2819 63.6784 82.7022C58.5114 83.0689 58.9452 80.9403 51.1051 81.8618C43.2649 82.7834 47.0207 84.6347 41.645 85.5427C36.2692 86.4507 36.0781 84.0792 31.0965 85.029C26.1149 85.9788 25.9763 86.9808 21.7737 88.0451C17.5711 89.1095 13.4168 88.2906 7.89078 89.057" stroke="#FABF00" stroke-width="0.157629"/>
<path d="M121.722 73.0156C117.06 74.0639 114.741 76.3692 109.631 76.6915C104.521 77.0138 104.918 74.7239 99.8645 75.3614C94.8115 75.9988 95.0476 78.6085 89.3087 79.2346C84.1052 79.8023 88.2969 77.5029 80.3597 77.6973C72.4226 77.8917 71.5064 81.758 65.592 81.9251C60.4313 82.071 60.9499 79.9533 53.1045 80.541C45.259 81.1287 48.924 83.1482 43.5334 83.8283C38.1428 84.5084 38.049 82.1201 33.0492 82.859C28.0494 83.598 27.8706 84.5977 23.642 85.4851C19.4133 86.3725 15.3093 85.372 9.77488 85.9035" stroke="#FBBD00" stroke-width="0.157629"/>
<path d="M123.866 74.6057C119.181 75.4589 116.777 77.6736 111.675 77.779C106.574 77.8844 107.062 75.603 102.004 76.0271C96.9463 76.4513 97.0744 79.0806 91.3339 79.4641C86.129 79.8118 90.3974 77.6828 82.4856 77.5392C74.5738 77.3955 73.5029 81.2369 67.6065 81.1522C62.4616 81.0783 63.0648 78.975 55.2283 79.23C47.3917 79.485 50.9585 81.6684 45.5626 82.1209C40.1668 82.5734 40.1713 80.1724 35.1622 80.7006C30.1531 81.2288 29.9341 82.2246 25.6868 82.9348C21.4395 83.645 17.3938 82.4656 11.8608 82.7628" stroke="#FDBB00" stroke-width="0.157629"/>
<path d="M126.012 76.1996C121.311 76.8576 118.826 78.9787 113.741 78.8684C108.657 78.7582 109.238 76.489 104.184 76.7005C99.1302 76.9121 99.1491 79.5565 93.4172 79.6983C88.2202 79.8269 92.5583 77.8708 84.6863 77.3916C76.8142 76.9124 75.589 80.7226 69.7213 80.3879C64.6014 80.0958 65.289 78.0103 57.4754 77.9344C49.6617 77.8585 53.123 80.201 47.7315 80.4266C42.34 80.6523 42.4437 78.2426 37.4342 78.5607C32.4246 78.8788 32.1653 79.8689 27.9068 80.4018C23.6483 80.9348 19.6687 79.5798 14.147 79.6438" stroke="#FEB900" stroke-width="0.157629"/>
</mask>
<g mask="url(#mask0_6_368)">
<rect x="-11.5068" y="6.2762" width="174.18" height="170.712" fill="#190202"/>
</g>
<path d="M330.292 172.827L329.036 171.933L330.596 169.859L328.256 169.06L328.732 167.595L331.091 168.375V165.826H332.632V168.375L334.991 167.595L335.467 169.06L333.127 169.859L334.668 171.933L333.431 172.827L331.852 170.754L330.292 172.827ZM336.095 180L343.153 165.826H345.36L348.462 180H346.54L345.836 176.671H339.805L338.188 180H336.095ZM340.642 174.958H345.494L343.876 167.196L344.409 167.253L340.642 174.958ZM350.038 180L351.484 169.745H353.216L352.949 171.743L352.683 171.534C353.013 170.887 353.482 170.392 354.091 170.05C354.7 169.695 355.365 169.517 356.088 169.517C356.837 169.517 357.484 169.695 358.029 170.05C358.574 170.405 358.974 170.893 359.228 171.515C359.494 172.123 359.57 172.821 359.456 173.607L358.562 180H356.773L357.648 173.76C357.75 172.986 357.61 172.371 357.23 171.914C356.849 171.458 356.304 171.229 355.594 171.229C355.099 171.229 354.642 171.343 354.224 171.572C353.818 171.787 353.476 172.098 353.197 172.504C352.93 172.91 352.753 173.392 352.664 173.95L351.827 180H350.038ZM365.336 180.114C364.322 180.114 363.573 179.822 363.091 179.239C362.609 178.656 362.438 177.837 362.578 176.785L363.32 171.439H361.474L361.702 169.745H362.045C362.501 169.745 362.888 169.599 363.205 169.308C363.535 169.016 363.725 168.642 363.776 168.185L363.89 167.386H365.698L365.374 169.745H367.638L367.391 171.439H365.127L364.366 176.842C364.315 177.184 364.322 177.482 364.385 177.736C364.448 177.977 364.588 178.167 364.804 178.307C365.019 178.434 365.33 178.497 365.736 178.497C365.85 178.497 365.97 178.491 366.097 178.478C366.237 178.465 366.364 178.453 366.478 178.44L366.345 180.019C366.18 180.07 365.996 180.095 365.793 180.095C365.603 180.108 365.45 180.114 365.336 180.114ZM368.674 180L370.12 169.745H371.908L370.481 180H368.674ZM370.348 168.109L370.652 165.826H372.46L372.155 168.109H370.348ZM373.968 175.681L374.196 174.064H381.33L381.102 175.681H373.968ZM382.191 180L389.249 165.826H391.456L394.557 180H392.636L391.932 176.671H385.901L384.284 180H382.191ZM386.738 174.958H391.589L389.972 167.196L390.505 167.253L386.738 174.958ZM402.509 180.228C401.596 180.228 400.746 180.07 399.96 179.753C399.186 179.436 398.507 178.979 397.924 178.383C397.341 177.787 396.884 177.076 396.554 176.252C396.237 175.415 396.079 174.483 396.079 173.455C396.079 172.339 396.269 171.305 396.649 170.354C397.042 169.403 397.575 168.572 398.247 167.862C398.92 167.139 399.706 166.581 400.607 166.188C401.52 165.794 402.49 165.598 403.517 165.598C404.507 165.598 405.382 165.769 406.143 166.111C406.904 166.454 407.532 166.898 408.027 167.443C408.534 167.989 408.883 168.572 409.073 169.194L407.342 170.012C407.075 169.187 406.606 168.534 405.934 168.052C405.261 167.57 404.424 167.329 403.422 167.329C402.611 167.329 401.869 167.488 401.196 167.805C400.537 168.109 399.96 168.54 399.465 169.098C398.983 169.644 398.609 170.284 398.343 171.02C398.076 171.756 397.943 172.542 397.943 173.379C397.943 174.419 398.14 175.32 398.533 176.081C398.939 176.842 399.497 177.438 400.207 177.869C400.917 178.288 401.742 178.497 402.68 178.497C403.543 178.497 404.323 178.313 405.02 177.945C405.731 177.577 406.308 177.07 406.752 176.423C407.208 175.764 407.481 175.015 407.57 174.178L407.684 173.303L408.445 174.102H402.928L403.099 172.485H409.625L409.491 173.836C409.403 174.8 409.155 175.675 408.749 176.461C408.356 177.248 407.843 177.926 407.208 178.497C406.574 179.055 405.858 179.486 405.059 179.791C404.259 180.082 403.41 180.228 402.509 180.228ZM411.151 180L413.13 165.826H415.013L413.035 180H411.151ZM419.475 180L421.454 165.826H430.453L430.224 167.538H423.109L422.462 172.123H428.893L428.664 173.836H422.215L421.358 180H419.475ZM435.499 180.228C434.56 180.228 433.711 180.013 432.95 179.581C432.201 179.15 431.605 178.554 431.161 177.793C430.717 177.032 430.495 176.157 430.495 175.168C430.495 174.381 430.635 173.652 430.914 172.98C431.206 172.295 431.605 171.692 432.112 171.172C432.62 170.652 433.21 170.246 433.882 169.955C434.567 169.663 435.296 169.517 436.07 169.517C437.021 169.517 437.871 169.733 438.619 170.164C439.38 170.595 439.983 171.191 440.427 171.952C440.87 172.701 441.092 173.563 441.092 174.54C441.092 175.326 440.947 176.062 440.655 176.747C440.363 177.432 439.957 178.04 439.437 178.573C438.917 179.093 438.321 179.499 437.649 179.791C436.977 180.082 436.26 180.228 435.499 180.228ZM435.48 178.516C436.19 178.516 436.824 178.332 437.382 177.964C437.941 177.596 438.384 177.114 438.714 176.518C439.044 175.91 439.209 175.244 439.209 174.521C439.209 173.886 439.076 173.322 438.809 172.827C438.543 172.333 438.169 171.946 437.687 171.667C437.218 171.375 436.679 171.229 436.07 171.229C435.385 171.229 434.757 171.413 434.186 171.781C433.628 172.136 433.184 172.612 432.854 173.208C432.537 173.804 432.379 174.47 432.379 175.206C432.379 175.84 432.512 176.411 432.778 176.918C433.045 177.413 433.412 177.806 433.882 178.097C434.351 178.376 434.884 178.516 435.48 178.516ZM442.676 180L444.122 169.745H445.872L445.606 171.629L445.435 171.362C445.764 170.779 446.196 170.348 446.728 170.069C447.261 169.777 447.882 169.631 448.593 169.631H449.221L448.973 171.305H448.079C447.356 171.305 446.747 171.54 446.253 172.009C445.758 172.466 445.441 173.157 445.301 174.083L444.483 180H442.676ZM452.825 180L454.804 165.826H459.598C460.473 165.826 461.234 165.997 461.881 166.34C462.528 166.67 463.029 167.145 463.384 167.767C463.739 168.388 463.917 169.13 463.917 169.993C463.917 170.868 463.701 171.654 463.27 172.352C462.852 173.049 462.262 173.595 461.501 173.988C460.74 174.381 459.846 174.578 458.818 174.578H455.47L454.709 180H452.825ZM455.717 172.865H458.932C459.541 172.865 460.074 172.739 460.53 172.485C461 172.231 461.368 171.889 461.634 171.458C461.9 171.026 462.033 170.525 462.033 169.955C462.033 169.206 461.799 168.616 461.33 168.185C460.873 167.754 460.258 167.538 459.484 167.538H456.459L455.717 172.865ZM464.86 180L466.306 169.745H468.056L467.79 171.629L467.618 171.362C467.948 170.779 468.38 170.348 468.912 170.069C469.445 169.777 470.066 169.631 470.777 169.631H471.405L471.157 171.305H470.263C469.54 171.305 468.931 171.54 468.437 172.009C467.942 172.466 467.625 173.157 467.485 174.083L466.667 180H464.86ZM476.838 180.228C475.9 180.228 475.05 180.013 474.289 179.581C473.541 179.15 472.945 178.554 472.501 177.793C472.057 177.032 471.835 176.157 471.835 175.168C471.835 174.381 471.974 173.652 472.253 172.98C472.545 172.295 472.945 171.692 473.452 171.172C473.959 170.652 474.549 170.246 475.221 169.955C475.906 169.663 476.635 169.517 477.409 169.517C478.36 169.517 479.21 169.733 479.959 170.164C480.72 170.595 481.322 171.191 481.766 171.952C482.21 172.701 482.432 173.563 482.432 174.54C482.432 175.326 482.286 176.062 481.994 176.747C481.703 177.432 481.297 178.04 480.777 178.573C480.257 179.093 479.661 179.499 478.988 179.791C478.316 180.082 477.599 180.228 476.838 180.228ZM476.819 178.516C477.53 178.516 478.164 178.332 478.722 177.964C479.28 177.596 479.724 177.114 480.054 176.518C480.383 175.91 480.548 175.244 480.548 174.521C480.548 173.886 480.415 173.322 480.149 172.827C479.882 172.333 479.508 171.946 479.026 171.667C478.557 171.375 478.018 171.229 477.409 171.229C476.724 171.229 476.096 171.413 475.526 171.781C474.968 172.136 474.524 172.612 474.194 173.208C473.877 173.804 473.718 174.47 473.718 175.206C473.718 175.84 473.851 176.411 474.118 176.918C474.384 177.413 474.752 177.806 475.221 178.097C475.691 178.376 476.223 178.516 476.819 178.516ZM484.784 180L485.982 171.439H484.023L484.27 169.745H486.23L486.325 169.117C486.439 168.344 486.686 167.697 487.067 167.177C487.447 166.644 487.91 166.251 488.456 165.997C489.014 165.731 489.604 165.598 490.225 165.598C490.403 165.598 490.58 165.61 490.758 165.636C490.935 165.648 491.088 165.668 491.214 165.693L491.1 167.272C490.999 167.247 490.878 167.234 490.739 167.234C490.612 167.221 490.523 167.215 490.473 167.215C489.864 167.215 489.337 167.361 488.893 167.652C488.462 167.944 488.196 168.464 488.094 169.213L488.018 169.745H493.345L493.117 171.439H487.771L486.591 180H484.784ZM490.815 180L492.242 169.745H494.049L492.622 180H490.815ZM499.332 180.114C498.317 180.114 497.569 179.822 497.087 179.239C496.605 178.656 496.434 177.837 496.573 176.785L497.315 171.439H495.47L495.698 169.745H496.04C496.497 169.745 496.884 169.599 497.201 169.308C497.531 169.016 497.721 168.642 497.772 168.185L497.886 167.386H499.693L499.37 169.745H501.634L501.387 171.439H499.123L498.362 176.842C498.311 177.184 498.317 177.482 498.381 177.736C498.444 177.977 498.583 178.167 498.799 178.307C499.015 178.434 499.325 178.497 499.731 178.497C499.846 178.497 499.966 178.491 500.093 178.478C500.232 178.465 500.359 178.453 500.473 178.44L500.34 180.019C500.175 180.07 499.991 180.095 499.788 180.095C499.598 180.108 499.446 180.114 499.332 180.114ZM513.511 180.228C512.547 180.228 511.653 180.063 510.828 179.734C510.016 179.391 509.3 178.922 508.678 178.326C508.07 177.717 507.594 177 507.251 176.176C506.922 175.339 506.757 174.419 506.757 173.417C506.757 172.326 506.947 171.312 507.328 170.373C507.721 169.435 508.26 168.604 508.945 167.881C509.642 167.158 510.454 166.6 511.38 166.207C512.319 165.801 513.327 165.598 514.405 165.598C515.382 165.598 516.282 165.763 517.107 166.092C517.931 166.422 518.648 166.891 519.257 167.5C519.865 168.109 520.341 168.832 520.683 169.669C521.026 170.494 521.197 171.401 521.197 172.39C521.197 173.481 521.001 174.502 520.607 175.453C520.214 176.392 519.669 177.222 518.971 177.945C518.274 178.656 517.455 179.214 516.517 179.619C515.591 180.025 514.589 180.228 513.511 180.228ZM513.53 178.497C514.354 178.497 515.115 178.338 515.813 178.021C516.523 177.692 517.138 177.248 517.658 176.69C518.178 176.131 518.584 175.491 518.876 174.768C519.168 174.032 519.314 173.252 519.314 172.428C519.314 171.464 519.104 170.601 518.686 169.84C518.28 169.067 517.709 168.458 516.973 168.014C516.25 167.557 515.394 167.329 514.405 167.329C513.581 167.329 512.813 167.494 512.103 167.824C511.405 168.141 510.797 168.578 510.277 169.136C509.756 169.695 509.351 170.335 509.059 171.058C508.767 171.781 508.621 172.555 508.621 173.379C508.621 174.343 508.831 175.212 509.249 175.986C509.668 176.759 510.238 177.374 510.961 177.831C511.697 178.275 512.553 178.497 513.53 178.497ZM522.716 180L524.162 169.745H525.913L525.646 171.629L525.475 171.362C525.805 170.779 526.236 170.348 526.769 170.069C527.302 169.777 527.923 169.631 528.633 169.631H529.261L529.014 171.305H528.12C527.397 171.305 526.788 171.54 526.293 172.009C525.799 172.466 525.481 173.157 525.342 174.083L524.524 180H522.716ZM533.839 184.186C533.078 184.186 532.399 184.065 531.803 183.824C531.207 183.596 530.712 183.272 530.319 182.854C529.939 182.448 529.672 181.979 529.52 181.446L531.194 180.837C531.321 181.294 531.613 181.681 532.07 181.998C532.539 182.315 533.179 182.473 533.991 182.473C534.537 182.473 535.057 182.365 535.551 182.15C536.046 181.947 536.464 181.643 536.807 181.237C537.149 180.831 537.359 180.323 537.435 179.715L537.777 177.26L538.272 177.622C537.879 178.319 537.333 178.852 536.636 179.22C535.951 179.575 535.202 179.753 534.391 179.753C533.528 179.753 532.735 179.556 532.012 179.163C531.302 178.757 530.738 178.199 530.319 177.489C529.913 176.766 529.71 175.935 529.71 174.996C529.71 174.235 529.844 173.525 530.11 172.865C530.376 172.193 530.75 171.61 531.232 171.115C531.727 170.62 532.298 170.234 532.945 169.955C533.592 169.663 534.296 169.517 535.057 169.517C535.906 169.517 536.661 169.701 537.321 170.069C537.98 170.437 538.494 170.944 538.862 171.591L538.557 172.028L538.862 169.745H540.631L539.242 179.772C539.128 180.647 538.811 181.414 538.291 182.074C537.784 182.746 537.143 183.266 536.369 183.634C535.608 184.002 534.765 184.186 533.839 184.186ZM534.581 178.04C535.253 178.04 535.856 177.869 536.388 177.527C536.934 177.184 537.365 176.734 537.682 176.176C538.012 175.618 538.177 175.015 538.177 174.368C538.177 173.772 538.05 173.24 537.796 172.77C537.543 172.288 537.187 171.914 536.731 171.648C536.287 171.369 535.76 171.229 535.152 171.229C534.517 171.229 533.928 171.394 533.382 171.724C532.837 172.054 532.399 172.498 532.07 173.056C531.752 173.601 531.594 174.229 531.594 174.939C531.594 175.523 531.721 176.049 531.974 176.518C532.241 176.988 532.596 177.362 533.04 177.641C533.496 177.907 534.01 178.04 534.581 178.04ZM545.2 180.228C544.617 180.228 544.071 180.127 543.564 179.924C543.069 179.708 542.67 179.398 542.365 178.992C542.061 178.573 541.909 178.053 541.909 177.432C541.909 176.835 542.055 176.309 542.346 175.852C542.651 175.383 543.076 175.003 543.621 174.711C544.179 174.407 544.832 174.197 545.581 174.083L549.462 173.455L549.31 174.939L545.885 175.529C545.238 175.643 544.724 175.859 544.344 176.176C543.963 176.48 543.773 176.867 543.773 177.336C543.773 177.768 543.932 178.11 544.249 178.364C544.579 178.605 545.003 178.725 545.524 178.725C546.12 178.725 546.659 178.586 547.141 178.307C547.635 178.028 548.041 177.654 548.358 177.184C548.688 176.702 548.891 176.176 548.967 175.605L549.291 173.17C549.367 172.713 549.31 172.339 549.119 172.047C548.929 171.743 548.663 171.521 548.32 171.381C547.99 171.229 547.635 171.153 547.255 171.153C546.633 171.153 546.075 171.312 545.581 171.629C545.099 171.946 544.724 172.345 544.458 172.827L542.974 171.933C543.228 171.464 543.57 171.052 544.001 170.697C544.445 170.329 544.953 170.043 545.524 169.84C546.107 169.625 546.722 169.517 547.369 169.517C548.13 169.517 548.809 169.676 549.405 169.993C550.014 170.31 550.47 170.747 550.775 171.305C551.092 171.863 551.199 172.51 551.098 173.246L550.147 180H548.396L548.663 178.059L549.043 178.231C548.777 178.637 548.447 178.992 548.054 179.296C547.661 179.588 547.223 179.816 546.741 179.981C546.259 180.146 545.745 180.228 545.2 180.228ZM552.89 180L554.336 169.745H556.067L555.801 171.743L555.534 171.534C555.864 170.887 556.333 170.392 556.942 170.05C557.551 169.695 558.217 169.517 558.94 169.517C559.688 169.517 560.335 169.695 560.88 170.05C561.426 170.405 561.825 170.893 562.079 171.515C562.345 172.123 562.421 172.821 562.307 173.607L561.413 180H559.625L560.5 173.76C560.601 172.986 560.462 172.371 560.081 171.914C559.701 171.458 559.155 171.229 558.445 171.229C557.95 171.229 557.494 171.343 557.075 171.572C556.669 171.787 556.327 172.098 556.048 172.504C555.781 172.91 555.604 173.392 555.515 173.95L554.678 180H552.89ZM563.926 180L565.372 169.745H567.16L565.733 180H563.926ZM565.6 168.109L565.905 165.826H567.712L567.408 168.109H565.6ZM572.321 180.228C571.649 180.228 571.027 180.114 570.456 179.886C569.898 179.645 569.423 179.309 569.03 178.877C568.636 178.446 568.364 177.945 568.211 177.374L569.676 176.785C569.905 177.381 570.26 177.85 570.742 178.193C571.237 178.535 571.801 178.706 572.435 178.706C573.044 178.706 573.532 178.56 573.9 178.269C574.281 177.964 574.471 177.59 574.471 177.146C574.471 176.816 574.35 176.55 574.109 176.347C573.868 176.131 573.532 175.967 573.101 175.852L571.598 175.434C570.824 175.218 570.228 174.882 569.81 174.426C569.404 173.956 569.201 173.398 569.201 172.751C569.201 172.155 569.372 171.616 569.714 171.134C570.057 170.639 570.514 170.246 571.084 169.955C571.668 169.663 572.308 169.517 573.006 169.517C573.944 169.517 574.75 169.758 575.422 170.24C576.107 170.709 576.551 171.35 576.754 172.162L575.27 172.751C575.092 172.206 574.794 171.787 574.376 171.496C573.97 171.204 573.488 171.058 572.93 171.058C572.359 171.058 571.896 171.198 571.541 171.477C571.186 171.756 571.008 172.111 571.008 172.542C571.008 172.872 571.11 173.138 571.313 173.341C571.528 173.544 571.845 173.709 572.264 173.836L573.881 174.33C574.655 174.559 575.245 174.908 575.65 175.377C576.069 175.833 576.278 176.385 576.278 177.032C576.278 177.628 576.107 178.167 575.765 178.649C575.422 179.131 574.946 179.518 574.338 179.81C573.742 180.089 573.069 180.228 572.321 180.228ZM581.467 180.228C580.884 180.228 580.338 180.127 579.831 179.924C579.336 179.708 578.937 179.398 578.633 178.992C578.328 178.573 578.176 178.053 578.176 177.432C578.176 176.835 578.322 176.309 578.614 175.852C578.918 175.383 579.343 175.003 579.888 174.711C580.446 174.407 581.099 174.197 581.848 174.083L585.729 173.455L585.577 174.939L582.152 175.529C581.505 175.643 580.992 175.859 580.611 176.176C580.231 176.48 580.04 176.867 580.04 177.336C580.04 177.768 580.199 178.11 580.516 178.364C580.846 178.605 581.271 178.725 581.791 178.725C582.387 178.725 582.926 178.586 583.408 178.307C583.903 178.028 584.308 177.654 584.626 177.184C584.955 176.702 585.158 176.176 585.234 175.605L585.558 173.17C585.634 172.713 585.577 172.339 585.387 172.047C585.196 171.743 584.93 171.521 584.587 171.381C584.258 171.229 583.903 171.153 583.522 171.153C582.901 171.153 582.342 171.312 581.848 171.629C581.366 171.946 580.992 172.345 580.725 172.827L579.241 171.933C579.495 171.464 579.837 171.052 580.269 170.697C580.713 170.329 581.22 170.043 581.791 169.84C582.374 169.625 582.989 169.517 583.636 169.517C584.397 169.517 585.076 169.676 585.672 169.993C586.281 170.31 586.737 170.747 587.042 171.305C587.359 171.863 587.467 172.51 587.365 173.246L586.414 180H584.664L584.93 178.059L585.31 178.231C585.044 178.637 584.714 178.992 584.321 179.296C583.928 179.588 583.49 179.816 583.008 179.981C582.526 180.146 582.013 180.228 581.467 180.228ZM593.103 180.114C592.088 180.114 591.34 179.822 590.858 179.239C590.376 178.656 590.205 177.837 590.344 176.785L591.086 171.439H589.241L589.469 169.745H589.811C590.268 169.745 590.655 169.599 590.972 169.308C591.302 169.016 591.492 168.642 591.543 168.185L591.657 167.386H593.464L593.141 169.745H595.405L595.157 171.439H592.893L592.132 176.842C592.082 177.184 592.088 177.482 592.151 177.736C592.215 177.977 592.354 178.167 592.57 178.307C592.786 178.434 593.096 178.497 593.502 178.497C593.616 178.497 593.737 178.491 593.864 178.478C594.003 178.465 594.13 178.453 594.244 178.44L594.111 180.019C593.946 180.07 593.762 180.095 593.559 180.095C593.369 180.108 593.217 180.114 593.103 180.114ZM596.44 180L597.886 169.745H599.674L598.247 180H596.44ZM598.114 168.109L598.419 165.826H600.226L599.922 168.109H598.114ZM606.319 180.228C605.381 180.228 604.531 180.013 603.77 179.581C603.021 179.15 602.425 178.554 601.981 177.793C601.537 177.032 601.315 176.157 601.315 175.168C601.315 174.381 601.455 173.652 601.734 172.98C602.026 172.295 602.425 171.692 602.933 171.172C603.44 170.652 604.03 170.246 604.702 169.955C605.387 169.663 606.116 169.517 606.89 169.517C607.841 169.517 608.691 169.733 609.439 170.164C610.2 170.595 610.803 171.191 611.247 171.952C611.691 172.701 611.913 173.563 611.913 174.54C611.913 175.326 611.767 176.062 611.475 176.747C611.183 177.432 610.777 178.04 610.257 178.573C609.737 179.093 609.141 179.499 608.469 179.791C607.797 180.082 607.08 180.228 606.319 180.228ZM606.3 178.516C607.01 178.516 607.645 178.332 608.203 177.964C608.761 177.596 609.205 177.114 609.534 176.518C609.864 175.91 610.029 175.244 610.029 174.521C610.029 173.886 609.896 173.322 609.63 172.827C609.363 172.333 608.989 171.946 608.507 171.667C608.038 171.375 607.499 171.229 606.89 171.229C606.205 171.229 605.577 171.413 605.006 171.781C604.448 172.136 604.004 172.612 603.675 173.208C603.358 173.804 603.199 174.47 603.199 175.206C603.199 175.84 603.332 176.411 603.599 176.918C603.865 177.413 604.233 177.806 604.702 178.097C605.171 178.376 605.704 178.516 606.3 178.516ZM613.496 180L614.942 169.745H616.673L616.407 171.743L616.141 171.534C616.47 170.887 616.94 170.392 617.548 170.05C618.157 169.695 618.823 169.517 619.546 169.517C620.294 169.517 620.941 169.695 621.487 170.05C622.032 170.405 622.432 170.893 622.685 171.515C622.952 172.123 623.028 172.821 622.914 173.607L622.019 180H620.231L621.106 173.76C621.208 172.986 621.068 172.371 620.688 171.914C620.307 171.458 619.762 171.229 619.051 171.229C618.557 171.229 618.1 171.343 617.682 171.572C617.276 171.787 616.933 172.098 616.654 172.504C616.388 172.91 616.21 173.392 616.122 173.95L615.284 180H613.496Z" fill="#190202"/>
<path d="M203.486 142V58.8205H177.714V40.4119H249.985V58.8205H224.622V142H203.486ZM250.829 142V67.5475H269.919V85.4107L268.555 82.8198C270.192 76.5473 272.874 72.3201 276.601 70.1384C280.419 67.8657 284.919 66.7294 290.1 66.7294H294.464V84.4561H288.055C283.055 84.4561 279.01 86.0016 275.919 89.0924C272.828 92.0923 271.283 96.3649 271.283 101.91V142H250.829ZM330.155 143.636C324.155 143.636 319.019 142.364 314.746 139.818C310.565 137.182 307.383 133.546 305.201 128.909C303.019 124.273 301.928 118.864 301.928 112.683V67.5475H322.382V111.046C322.382 113.864 322.928 116.364 324.019 118.546C325.201 120.637 326.837 122.273 328.928 123.455C331.019 124.637 333.382 125.228 336.018 125.228C338.746 125.228 341.109 124.637 343.109 123.455C345.2 122.273 346.791 120.637 347.882 118.546C349.064 116.364 349.654 113.864 349.654 111.046V67.5475H370.108V142H351.018V127.273L352.109 130.546C350.382 135 347.564 138.318 343.655 140.5C339.837 142.591 335.337 143.636 330.155 143.636ZM414.239 143.636C406.057 143.636 398.921 141.727 392.83 137.909C386.831 134 382.74 128.773 380.558 122.228L395.558 115.137C397.467 119.137 400.057 122.273 403.33 124.546C406.603 126.819 410.239 127.955 414.239 127.955C417.148 127.955 419.375 127.364 420.921 126.182C422.466 125 423.239 123.364 423.239 121.273C423.239 120.182 422.966 119.273 422.42 118.546C421.875 117.728 421.057 117.001 419.966 116.364C418.875 115.728 417.512 115.183 415.875 114.728L403.194 111.183C397.103 109.455 392.421 106.683 389.149 102.865C385.876 98.9557 384.24 94.365 384.24 89.0924C384.24 84.4561 385.422 80.4108 387.785 76.9564C390.149 73.5019 393.467 70.8202 397.739 68.9111C402.012 66.9112 406.921 65.9112 412.466 65.9112C419.739 65.9112 426.102 67.6384 431.557 71.0929C437.102 74.4564 441.011 79.229 443.284 85.4107L428.148 92.5014C427.057 89.4106 425.057 86.9561 422.148 85.1379C419.33 83.2289 416.102 82.2744 412.466 82.2744C409.83 82.2744 407.739 82.8198 406.194 83.9107C404.739 85.0016 404.012 86.5015 404.012 88.4106C404.012 89.4106 404.285 90.3196 404.83 91.1378C405.376 91.9559 406.239 92.6832 407.421 93.3195C408.694 93.9559 410.239 94.5468 412.057 95.0922L423.92 98.6376C430.102 100.456 434.829 103.228 438.102 106.956C441.375 110.592 443.011 115.092 443.011 120.455C443.011 125.091 441.784 129.137 439.329 132.591C436.966 136.046 433.647 138.773 429.375 140.773C425.102 142.682 420.057 143.636 414.239 143.636ZM491.098 142.818C482.098 142.818 475.098 140.409 470.098 135.591C465.19 130.682 462.735 123.864 462.735 115.137V85.2743H450.19V67.5475H450.872C454.69 67.5475 457.599 66.593 459.599 64.684C461.69 62.7749 462.735 59.9114 462.735 56.0933V50.6389H483.189V67.5475H500.643V85.2743H483.189V113.774C483.189 116.319 483.644 118.455 484.553 120.182C485.462 121.819 486.871 123.046 488.78 123.864C490.689 124.682 493.052 125.091 495.87 125.091C496.507 125.091 497.234 125.046 498.052 124.955C498.87 124.864 499.734 124.773 500.643 124.682V142C499.279 142.182 497.734 142.364 496.007 142.545C494.28 142.727 492.643 142.818 491.098 142.818ZM512.629 142V38.7756H533.083V142H512.629ZM583.913 143.636C576.004 143.636 569.141 141.909 563.323 138.455C557.505 134.909 553.005 130.182 549.823 124.273C546.641 118.364 545.051 111.819 545.051 104.637C545.051 97.1831 546.687 90.5469 549.96 84.7289C553.323 78.9108 557.823 74.3201 563.459 70.9565C569.095 67.593 575.459 65.9112 582.55 65.9112C588.458 65.9112 593.686 66.8657 598.231 68.7748C602.776 70.5929 606.594 73.1837 609.685 76.5473C612.867 79.9108 615.276 83.8198 616.912 88.2742C618.549 92.6377 619.367 97.4103 619.367 102.592C619.367 104.047 619.276 105.501 619.094 106.956C619.003 108.319 618.776 109.501 618.412 110.501H562.641V95.5013H606.822L597.14 102.592C598.049 98.683 598.004 95.2286 597.004 92.2287C596.004 89.1378 594.231 86.7288 591.686 85.0016C589.231 83.1835 586.186 82.2744 582.55 82.2744C579.004 82.2744 575.959 83.138 573.413 84.8652C570.868 86.5925 568.959 89.1378 567.686 92.5014C566.414 95.8649 565.914 99.9557 566.186 104.774C565.823 108.955 566.323 112.637 567.686 115.819C569.05 119.001 571.141 121.501 573.959 123.319C576.777 125.046 580.186 125.91 584.186 125.91C587.822 125.91 590.913 125.182 593.458 123.728C596.095 122.273 598.14 120.273 599.595 117.728L615.958 125.5C614.503 129.137 612.185 132.318 609.003 135.046C605.913 137.773 602.231 139.909 597.958 141.455C593.686 142.909 589.004 143.636 583.913 143.636Z" fill="#190202"/>
</svg>
